REM MD5 8c0837f8d9defe177e7236de9041ac87
FILE "Fighting Network Rings (Japan).bin" BINARY
  TRACK 01 MODE2/2352
    INDEX 01 00:00:00
  TRACK 02 AUDIO
    INDEX 00 58:40:32
    INDEX 01 58:42:32
  TRACK 03 AUDIO
    INDEX 00 59:47:13
    INDEX 01 59:49:13
  TRACK 04 AUDIO
    INDEX 00 60:34:14
    INDEX 01 60:36:14
  TRACK 05 AUDIO
    INDEX 00 61:08:29
    INDEX 01 61:10:29
  TRACK 06 AUDIO
    INDEX 00 61:32:30
    INDEX 01 61:34:30
REM LEADOUT 64:52:61
